<?xml version="1.0" encoding="UTF-8" standalone="no"?>
<!-- Created with Inkscape (http://www.inkscape.org/) -->

<svg
   xmlns:dc="http://purl.org/dc/elements/1.1/"
   xmlns:cc="http://creativecommons.org/ns#"
   xmlns:rdf="http://www.w3.org/1999/02/22-rdf-syntax-ns#"
   xmlns:svg="http://www.w3.org/2000/svg"
   xmlns="http://www.w3.org/2000/svg"
   xmlns:xlink="http://www.w3.org/1999/xlink"
   xmlns:sodipodi="http://sodipodi.sourceforge.net/DTD/sodipodi-0.dtd"
   xmlns:inkscape="http://www.inkscape.org/namespaces/inkscape"
   width="210mm"
   height="297mm"
   viewBox="0 0 210 297"
   version="1.1"
   id="svg4423"
   inkscape:version="0.92.3 (2405546, 2018-03-11)"
   sodipodi:docname="glogo.svg">
  <defs
     id="defs4417">
    <linearGradient
       inkscape:collect="always"
       xlink:href="#linearGradient13624"
       id="linearGradient13630-1-8-9"
       x1="1536.335"
       y1="2012.9987"
       x2="1647.3322"
       y2="2012.9987"
       gradientUnits="userSpaceOnUse"
       gradientTransform="translate(-1470.7614,-1232.7712)" />
    <linearGradient
       inkscape:collect="always"
       id="linearGradient13624">
      <stop
         style="stop-color:#00b9c5;stop-opacity:1;"
         offset="0"
         id="stop13626" />
      <stop
         style="stop-color:#00b9c5;stop-opacity:0;"
         offset="1"
         id="stop13628" />
    </linearGradient>
    <linearGradient
       inkscape:collect="always"
       xlink:href="#linearGradient13624"
       id="linearGradient4475"
       gradientUnits="userSpaceOnUse"
       gradientTransform="translate(-1470.7614,-1232.7712)"
       x1="1536.335"
       y1="2012.9987"
       x2="1647.3322"
       y2="2012.9987" />
  </defs>
  <sodipodi:namedview
     id="base"
     pagecolor="#ffffff"
     bordercolor="#666666"
     borderopacity="1.0"
     inkscape:pageopacity="0.0"
     inkscape:pageshadow="2"
     inkscape:zoom="0.35"
     inkscape:cx="400"
     inkscape:cy="560"
     inkscape:document-units="mm"
     inkscape:current-layer="layer1"
     showgrid="false"
     inkscape:window-width="1278"
     inkscape:window-height="1012"
     inkscape:window-x="0"
     inkscape:window-y="0"
     inkscape:window-maximized="0" />
  <metadata
     id="metadata4420">
    <rdf:RDF>
      <cc:Work
         rdf:about="">
        <dc:format>image/svg+xml</dc:format>
        <dc:type
           rdf:resource="http://purl.org/dc/dcmitype/StillImage" />
        <dc:title></dc:title>
      </cc:Work>
    </rdf:RDF>
  </metadata>
  <g
     inkscape:label="Layer 1"
     inkscape:groupmode="layer"
     id="layer1">
    <g
       id="g4283"
       transform="matrix(1.8310104,0,0,1.8310104,-49.227815,-1291.1983)">
      <g
         transform="translate(-35.560306,-3.8568871)"
         id="text2985-0-8-7-1-2-9-7-2-9-72-0-3-5-4-23-4-3-1-2-3"
         style="font-style:normal;font-variant:normal;font-weight:normal;font-stretch:normal;line-height:0%;font-family:Yellowtail;-inkscape-font-specification:Yellowtail;letter-spacing:0px;word-spacing:0px;fill:#0079a2;fill-opacity:1;stroke:none"
         aria-label="G">
        <path
           inkscape:connector-curvature="0"
           id="path4270"
           style="fill:#0079a2;fill-opacity:1"
           d="m 176.57075,725.84241 q 0,3.54913 -4.5234,8.55966 -4.5234,5.01053 -11.20411,9.53393 -6.61112,4.5234 -13.15265,7.16784 1.46141,-0.48713 2.9924,-0.48713 5.14972,0 6.8199,1.87895 0.41754,0.41754 0.41754,0.97427 0,0.55673 -1.87895,2.71404 -19.55499,22.61699 -35.90882,44.88602 6.68071,-5.2193 11.83043,-9.95147 2.85322,-2.57486 6.95907,-2.57486 2.9924,0 3.68831,0.7655 0.69591,0.76549 0.69591,1.32222 0,0.48714 -0.90468,1.18304 -11.62165,10.16025 -37.92695,29.64565 -4.523399,5.08013 -22.825762,24.21758 -3.270764,3.34035 -7.237436,3.34035 -7.724571,0 -7.724571,-4.31462 0,-1.87895 2.992401,-5.9848 4.314626,-6.33276 21.085992,-19.13745 3.688309,-4.10586 12.735106,-13.91815 17.11932,-18.65032 20.66845,-23.93921 -9.46434,8.9772 -14.3357,12.66551 -4.87135,3.68831 -9.04679,6.40235 -4.105853,2.71404 -7.58539,4.38421 -16.840957,8.07253 -24.008803,0.0696 -3.618718,-3.96667 -3.618718,-11.62165 0,-7.72457 4.245035,-16.98014 4.245035,-9.25556 11.343289,-18.23277 7.098255,-9.04679 16.840957,-17.60645 9.7427,-8.55966 20.2509,-15.0316 10.5082,-6.47194 22.12986,-10.36902 11.62165,-3.96667 21.92108,-3.96667 3.54912,0 6.68071,1.18304 3.13158,1.18304 4.4538,2.50527 3.13159,3.13158 3.13159,10.71697 z m -40.22345,14.54446 -0.34795,1.39182 q 0,1.18304 1.60059,1.18304 4.24503,0 11.62165,-4.10585 7.37662,-4.10586 11.90001,-8.42048 4.5234,-4.31463 4.5234,-7.16785 0,-2.43567 -4.31462,-2.43567 -7.65498,0 -17.2585,3.7579 -9.53393,3.75789 -18.65032,9.7427 -9.11639,5.9848 -17.95441,13.77896 -8.838023,7.72457 -15.449143,15.51874 -6.541528,7.72457 -10.577791,15.17078 -4.036262,7.4462 -4.036262,12.7351 0,2.08772 1.183042,3.68831 1.252633,1.60059 3.618718,1.60059 7.307027,0 23.521666,-11.20411 16.28423,-11.20411 37.37023,-30.55033 0.27836,-0.27837 0.97427,-1.04386 1.53099,-1.87895 3.13158,-2.71404 -5.70644,2.29649 -9.32516,2.29649 -3.61872,0 -5.9848,-1.60059 -2.36609,-1.60058 -2.36609,-4.31462 0,-2.78363 2.43568,-5.21931 2.43567,-2.43567 3.40994,-2.43567 0.97427,0 0.97427,0.34795 z" />
      </g>
      <g
         transform="translate(-35.560306,-3.8568871)"
         id="text2985-0-8-7-1-2-9-7-2-9-72-0-3-5-4-2-4-3-5-7-2-6"
         style="font-style:normal;font-variant:normal;font-weight:normal;font-stretch:normal;line-height:0%;font-family:Yellowtail;-inkscape-font-specification:Yellowtail;letter-spacing:0px;word-spacing:0px;fill:url(#linearGradient13630-1-8-9);fill-opacity:1;stroke:none"
         aria-label="G">
        <path
           inkscape:connector-curvature="0"
           id="path4273"
           style="fill:url(#linearGradient4475);fill-opacity:1"
           d="m 176.57075,725.84241 q 0,3.54913 -4.5234,8.55966 -4.5234,5.01053 -11.20411,9.53393 -6.61112,4.5234 -13.15265,7.16784 1.46141,-0.48713 2.9924,-0.48713 5.14972,0 6.8199,1.87895 0.41754,0.41754 0.41754,0.97427 0,0.55673 -1.87895,2.71404 -19.55499,22.61699 -35.90882,44.88602 6.68071,-5.2193 11.83043,-9.95147 2.85322,-2.57486 6.95907,-2.57486 2.9924,0 3.68831,0.7655 0.69591,0.76549 0.69591,1.32222 0,0.48714 -0.90468,1.18304 -11.62165,10.16025 -37.92695,29.64565 -4.523399,5.08013 -22.825762,24.21758 -3.270764,3.34035 -7.237436,3.34035 -7.724571,0 -7.724571,-4.31462 0,-1.87895 2.992401,-5.9848 4.314626,-6.33276 21.085992,-19.13745 3.688309,-4.10586 12.735106,-13.91815 17.11932,-18.65032 20.66845,-23.93921 -9.46434,8.9772 -14.3357,12.66551 -4.87135,3.68831 -9.04679,6.40235 -4.105853,2.71404 -7.58539,4.38421 -16.840957,8.07253 -24.008803,0.0696 -3.618718,-3.96667 -3.618718,-11.62165 0,-7.72457 4.245035,-16.98014 4.245035,-9.25556 11.343289,-18.23277 7.098255,-9.04679 16.840957,-17.60645 9.7427,-8.55966 20.2509,-15.0316 10.5082,-6.47194 22.12986,-10.36902 11.62165,-3.96667 21.92108,-3.96667 3.54912,0 6.68071,1.18304 3.13158,1.18304 4.4538,2.50527 3.13159,3.13158 3.13159,10.71697 z m -40.22345,14.54446 -0.34795,1.39182 q 0,1.18304 1.60059,1.18304 4.24503,0 11.62165,-4.10585 7.37662,-4.10586 11.90001,-8.42048 4.5234,-4.31463 4.5234,-7.16785 0,-2.43567 -4.31462,-2.43567 -7.65498,0 -17.2585,3.7579 -9.53393,3.75789 -18.65032,9.7427 -9.11639,5.9848 -17.95441,13.77896 -8.838023,7.72457 -15.449143,15.51874 -6.541528,7.72457 -10.577791,15.17078 -4.036262,7.4462 -4.036262,12.7351 0,2.08772 1.183042,3.68831 1.252633,1.60059 3.618718,1.60059 7.307027,0 23.521666,-11.20411 16.28423,-11.20411 37.37023,-30.55033 0.27836,-0.27837 0.97427,-1.04386 1.53099,-1.87895 3.13158,-2.71404 -5.70644,2.29649 -9.32516,2.29649 -3.61872,0 -5.9848,-1.60059 -2.36609,-1.60058 -2.36609,-4.31462 0,-2.78363 2.43568,-5.21931 2.43567,-2.43567 3.40994,-2.43567 0.97427,0 0.97427,0.34795 z" />
      </g>
    </g>
  </g>
</svg>
